<?xml version="1.0" standalone="no"?>
<!DOCTYPE svg PUBLIC "-//W3C//DTD SVG 20010904//EN"
 "http://www.w3.org/TR/2001/REC-SVG-20010904/DTD/svg10.dtd">
<svg version="1.0" xmlns="http://www.w3.org/2000/svg"
 width="28.000000pt" height="30.000000pt" viewBox="0 0 28.000000 30.000000"
 preserveAspectRatio="xMidYMid meet">

<g transform="translate(0.000000,30.000000) scale(0.100000,-0.100000)"
fill="#fff" stroke="none">
<path d="M139 247 c-6 -10 -14 -15 -19 -12 -13 8 -32 -33 -25 -55 6 -18 1 -20
-37 -20 l-43 -1 27 -24 c16 -13 35 -28 43 -33 14 -7 14 -11 0 -38 -13 -26 -13
-29 1 -32 8 -2 22 5 29 15 11 14 14 15 15 3 0 -12 2 -13 9 -1 5 8 14 10 21 6
15 -9 30 12 30 41 0 12 7 25 16 28 11 4 13 13 9 27 -6 19 -4 21 19 17 19 -4
26 -1 26 11 0 26 -14 41 -46 51 -28 8 -28 9 -7 15 33 11 17 25 -24 22 -21 -1
-39 -9 -44 -20z m42 -36 c-7 -5 -10 -14 -7 -20 4 -6 0 -11 -8 -11 -9 0 -16 9
-16 20 0 14 7 20 23 20 16 0 18 -3 8 -9z"/>
</g>
</svg>
