<svg
   xmlns="http://www.w3.org/2000/svg" width="200" height="35" version="1" viewBox="0 0 1000 454"
    >
      <path
        d="M0 65V0h460v130H0V65zm160-2c0-20-3-33-7-29-11 10-11 66-1 66 4 0 8-16 8-37zm80 2c0-19-4-35-10-35-5 0-10 16-10 35s5 35 10 35c6 0 10-16 10-35zm118 23c17-17 15-45-4-52-34-13-44-7-44 29 0 27 4 35 18 35 10 0 23-5 30-12zm77 2c3-5-3-10-14-10-12 0-21-7-21-15s9-15 20-15 20-4 20-10c0-18-39-10-50 11-9 15-8 24 1 35 13 16 35 18 44 4zM94 74c7-19-21-64-42-64-8 0-12 3-9 7 4 3 2 12-4 20-9 9-8 13 0 13 6 0 11 6 11 14 0 13 13 23 31 25 4 1 10-6 13-15zm114-19c0-33-23-33-26 0-1 15 3 25 12 25 8 0 14-11 14-25zm90-3c3-17-2-22-18-22-25 0-38 29-19 41 20 13 34 6 37-19z"
        transform="matrix(.1 0 0 -.1 0 13)"
      ></path>
      <path
        d="M330 65c0-9 5-15 11-13s11 8 11 13-5 11-11 13-11-4-11-13z"
        transform="matrix(.1 0 0 -.1 0 13)"
      ></path>
    </svg>